<svg width="20" height="20" viewBox="0 0 20 20" fill="none" xmlns="http://www.w3.org/2000/svg">
    <path d="M10 0.889893L9.80006 0.984892L1.81539 5.17289L0 6.10989L1.05717 6.63989V15.3899C0.675822 15.7369 0.418397 16.3699 0.418397 17.1099C0.418397 17.6403 0.552995 18.149 0.792581 18.5241C1.03217 18.8992 1.35712 19.1099 1.69594 19.1099C2.03477 19.1099 2.35972 18.8992 2.59931 18.5241C2.83889 18.149 2.97349 17.6403 2.97349 17.1099C2.97349 16.3699 2.71606 15.7369 2.33472 15.3899V7.32989L3.61226 7.98489V13.1099C3.61226 13.9299 3.93165 14.6099 4.31108 15.0799C4.69051 15.5469 5.16193 15.8769 5.72788 16.1729C6.86107 16.7629 8.35452 17.1099 10 17.1099C11.6455 17.1099 13.1389 16.7639 14.2721 16.1719C14.8381 15.8769 15.3095 15.5469 15.6889 15.0789C16.0683 14.6099 16.3877 13.9299 16.3877 13.1099V7.98489L18.1846 7.04689L20 6.10989L18.184 5.17189L10.1993 0.984892L10 0.889893ZM10 2.98489L15.9885 6.10989L10 9.23489L4.0115 6.10989L10 2.98489ZM4.88981 8.67289L9.8007 11.2349L10 11.3289L10.1999 11.2339L15.1102 8.67189V13.1099C15.1102 13.1199 15.1127 13.2359 14.9103 13.4849C14.7084 13.7349 14.3462 14.0499 13.8722 14.2979C12.9256 14.7909 11.5299 15.1099 10 15.1099C8.47014 15.1099 7.07442 14.7919 6.12712 14.2969C5.65442 14.0499 5.2916 13.7339 5.08975 13.4849C4.88662 13.2349 4.88981 13.1199 4.88981 13.1099V8.67289Z" fill="#434A51"/>
    <path d="M10 0.889893L9.80006 0.984892L1.81539 5.17289L0 6.10989L1.05717 6.63989V15.3899C0.675822 15.7369 0.418397 16.3699 0.418397 17.1099C0.418397 17.6403 0.552995 18.149 0.792581 18.5241C1.03217 18.8992 1.35712 19.1099 1.69594 19.1099C2.03477 19.1099 2.35972 18.8992 2.59931 18.5241C2.83889 18.149 2.97349 17.6403 2.97349 17.1099C2.97349 16.3699 2.71606 15.7369 2.33472 15.3899V7.32989L3.61226 7.98489V13.1099C3.61226 13.9299 3.93165 14.6099 4.31108 15.0799C4.69051 15.5469 5.16193 15.8769 5.72788 16.1729C6.86107 16.7629 8.35452 17.1099 10 17.1099C11.6455 17.1099 13.1389 16.7639 14.2721 16.1719C14.8381 15.8769 15.3095 15.5469 15.6889 15.0789C16.0683 14.6099 16.3877 13.9299 16.3877 13.1099V7.98489L18.1846 7.04689L20 6.10989L18.184 5.17189L10.1993 0.984892L10 0.889893ZM10 2.98489L15.9885 6.10989L10 9.23489L4.0115 6.10989L10 2.98489ZM4.88981 8.67289L9.8007 11.2349L10 11.3289L10.1999 11.2339L15.1102 8.67189V13.1099C15.1102 13.1199 15.1127 13.2359 14.9103 13.4849C14.7084 13.7349 14.3462 14.0499 13.8722 14.2979C12.9256 14.7909 11.5299 15.1099 10 15.1099C8.47014 15.1099 7.07442 14.7919 6.12712 14.2969C5.65442 14.0499 5.2916 13.7339 5.08975 13.4849C4.88662 13.2349 4.88981 13.1199 4.88981 13.1099V8.67289Z" fill="black" fill-opacity="0.2"/>
</svg>
