<svg width="20" height="20" viewBox="0 0 20 20" fill="none" xmlns="http://www.w3.org/2000/svg">
    <path d="M12.5 18.9583H7.50002C2.97502 18.9583 1.04169 17.025 1.04169 12.5V7.5C1.04169 2.975 2.97502 1.04166 7.50002 1.04166H11.6667C12.0084 1.04166 12.2917 1.325 12.2917 1.66666C12.2917 2.00833 12.0084 2.29166 11.6667 2.29166H7.50002C3.65835 2.29166 2.29169 3.65833 2.29169 7.5V12.5C2.29169 16.3417 3.65835 17.7083 7.50002 17.7083H12.5C16.3417 17.7083 17.7084 16.3417 17.7084 12.5V8.33333C17.7084 7.99166 17.9917 7.70833 18.3334 7.70833C18.675 7.70833 18.9584 7.99166 18.9584 8.33333V12.5C18.9584 17.025 17.025 18.9583 12.5 18.9583Z" fill="#353535"/>
    <path d="M18.3334 8.95834H15C12.15 8.95834 11.0417 7.85 11.0417 5V1.66667C11.0417 1.41667 11.1917 1.18334 11.425 1.09167C11.6584 0.99167 11.925 1.05 12.1084 1.225L18.775 7.89167C18.95 8.06667 19.0084 8.34167 18.9084 8.575C18.8084 8.80834 18.5834 8.95834 18.3334 8.95834ZM12.2917 3.175V5C12.2917 7.15 12.85 7.70834 15 7.70834H16.825L12.2917 3.175Z" fill="#353535"/>
    <path d="M10.8333 11.4583H5.83331C5.49165 11.4583 5.20831 11.175 5.20831 10.8333C5.20831 10.4917 5.49165 10.2083 5.83331 10.2083H10.8333C11.175 10.2083 11.4583 10.4917 11.4583 10.8333C11.4583 11.175 11.175 11.4583 10.8333 11.4583Z" fill="#353535"/>
    <path d="M9.16665 14.7917H5.83331C5.49165 14.7917 5.20831 14.5083 5.20831 14.1667C5.20831 13.825 5.49165 13.5417 5.83331 13.5417H9.16665C9.50831 13.5417 9.79165 13.825 9.79165 14.1667C9.79165 14.5083 9.50831 14.7917 9.16665 14.7917Z" fill="#353535"/>
</svg>
