<svg width="22" height="22" viewBox="0 0 22 22" fill="none" xmlns="http://www.w3.org/2000/svg">
    <path d="M11 17.923V20.9999M14.8461 16.3845V19.4615M7.15383 16.3845V19.4615M12.6369 5.44454C12.5487 5.19433 12.385 4.97767 12.1684 4.82446C11.9518 4.67124 11.693 4.58903 11.4277 4.58916H10.4354C10.1539 4.59016 9.88275 4.6948 9.6736 4.88309C9.46444 5.07139 9.33199 5.33014 9.30154 5.60991C9.27109 5.88968 9.34477 6.17087 9.50852 6.39975C9.67227 6.62864 9.91459 6.78917 10.1892 6.85069L11.7015 7.183C12.0095 7.25167 12.2813 7.43139 12.4651 7.68782C12.6489 7.94426 12.7318 8.25942 12.6979 8.5731C12.664 8.88678 12.5158 9.17699 12.2815 9.38826C12.0471 9.59953 11.7432 9.71706 11.4277 9.71839H10.5723C10.307 9.71829 10.0483 9.63599 9.83178 9.4828C9.61523 9.32962 9.45148 9.11309 9.36306 8.863M11 4.58916V3.30762M11 10.9999V9.71839M4.46152 7.53839C4.35951 7.53839 4.26168 7.49786 4.18956 7.42574C4.11743 7.35361 4.0769 7.25578 4.0769 7.15377C4.0769 7.05176 4.11743 6.95394 4.18956 6.88181C4.26168 6.80968 4.35951 6.76916 4.46152 6.76916C4.56353 6.76916 4.66135 6.80968 4.73348 6.88181C4.80561 6.95394 4.84614 7.05176 4.84614 7.15377C4.84614 7.25578 4.80561 7.35361 4.73348 7.42574C4.66135 7.49786 4.56353 7.53839 4.46152 7.53839ZM17.5384 7.53839C17.4364 7.53839 17.3386 7.49786 17.2665 7.42574C17.1943 7.35361 17.1538 7.25578 17.1538 7.15377C17.1538 7.05176 17.1943 6.95394 17.2665 6.88181C17.3386 6.80968 17.4364 6.76916 17.5384 6.76916C17.6404 6.76916 17.7383 6.80968 17.8104 6.88181C17.8825 6.95394 17.9231 7.05176 17.9231 7.15377C17.9231 7.25578 17.8825 7.35361 17.8104 7.42574C17.7383 7.49786 17.6404 7.53839 17.5384 7.53839Z" stroke="#FDFDFD" stroke-linecap="round" stroke-linejoin="round"/>
    <path d="M19.4615 1H2.53846C2.13044 1 1.73912 1.16209 1.4506 1.4506C1.16209 1.73912 1 2.13044 1 2.53846V11.7692C1 12.1773 1.16209 12.5686 1.4506 12.8571C1.73912 13.1456 2.13044 13.3077 2.53846 13.3077H19.4615C19.8696 13.3077 20.2609 13.1456 20.5494 12.8571C20.8379 12.5686 21 12.1773 21 11.7692V2.53846C21 2.13044 20.8379 1.73912 20.5494 1.4506C20.2609 1.16209 19.8696 1 19.4615 1Z" stroke="#FDFDFD" stroke-linecap="round" stroke-linejoin="round"/>
</svg>
