<svg width="16" height="20" viewBox="0 0 16 20" fill="none" xmlns="http://www.w3.org/2000/svg">
    <path d="M9.172 1H5C3.114 1 2.172 1 1.586 1.586C1 2.172 1 3.114 1 5V15C1 16.886 1 17.828 1.586 18.414C2.172 19 3.114 19 5 19H11C12.886 19 13.828 19 14.414 18.414C15 17.828 15 16.886 15 15V6.828C15 6.42 15 6.215 14.924 6.032C14.848 5.848 14.704 5.703 14.414 5.414L10.586 1.586C10.296 1.296 10.152 1.152 9.969 1.076C9.785 1 9.58 1 9.172 1Z" stroke="black"/>
    <path d="M9.855 12.08L6.673 10.717C6.49046 10.6387 6.29134 10.607 6.09351 10.6246C5.89567 10.6422 5.7053 10.7087 5.53948 10.818C5.37366 10.9273 5.23756 11.0761 5.14341 11.251C5.04925 11.4259 4.99997 11.6214 5 11.82V14.18C4.99997 14.3786 5.04925 14.5742 5.14341 14.7491C5.23756 14.9239 5.37366 15.0727 5.53948 15.182C5.7053 15.2914 5.89567 15.3578 6.09351 15.3754C6.29134 15.3931 6.49046 15.3613 6.673 15.283L9.855 13.919C10.663 13.573 10.663 12.427 9.855 12.081" stroke="black" stroke-linecap="round" stroke-linejoin="round"/>
    <path d="M9 1V5C9 5.943 9 6.414 9.293 6.707C9.586 7 10.057 7 11 7H15" stroke="black"/>
</svg>
